# xmcd
#
# Track frame offsets: 
#        150
#        25052
#        45341
#        70694
#        94773
#        115731
#        140207
#        169326
#        193509
#        217154
#
# Disc length: 3237 seconds
#
# Revision: 0
# Processed by: cddbd v1.5.2PL0 Copyright (c) Steve Scherf et al.
# Submitted via: ExactAudioCopy v1.0b3
#
DISCID=8d0ca30a
DTITLE=Phi Nhung - Mu Thu La Bay
DYEAR=1996
DGENRE=
TTITLE0=Rung la thap
TTITLE1=Noi buon gac tro
TTITLE2=Loi thu xua
TTITLE3=Tau dem nam cu
TTITLE4=Hay quen nhau
TTITLE5=Mua thu la bay
TTITLE6=Dau chan ky niem
TTITLE7=Bien dau
TTITLE8=Giong ca di vang
TTITLE9=Ke chuyen trong dem
EXTD=
EXTT0=
EXTT1=
EXTT2=
EXTT3=
EXTT4=
EXTT5=
EXTT6=
EXTT7=
EXTT8=
EXTT9=
PLAYORDER=
